<?xml version="1.0" encoding="UTF-8" standalone="no"?>
<svg xmlns="http://www.w3.org/2000/svg" width="1200" height="1200" viewBox="0 0 1200 1200">
  <rect width="1200" height="1200" fill="#ffffff"/>
  <g transform="translate(840,310)">
    <circle r="95" fill="#F6C338"/>
    <g stroke="#F6C338" stroke-width="16" stroke-linecap="round">
      <line x1="0" y1="-135" x2="0" y2="-185"/>
      <line x1="0" y1="135" x2="0" y2="185"/>
      <line x1="-135" y1="0" x2="-185" y2="0"/>
      <line x1="135" y1="0" x2="185" y2="0"/>
      <line x1="-96" y1="-96" x2="-132" y2="-132"/>
      <line x1="96" y1="-96" x2="132" y2="-132"/>
      <line x1="-96" y1="96" x2="-132" y2="132"/>
      <line x1="96" y1="96" x2="132" y2="132"/>
    </g>
  </g>
  <path d="M260,440 C 360,640 560,670 720,640 S 930,520 930,430" fill="none" stroke="#5A8E3D" stroke-width="40" stroke-linecap="round"/>
  <g transform="translate(170,380)">
    <rect x="0" y="0" width="150" height="130" rx="28" ry="28" fill="#5A8E3D"/>
    <rect x="34" y="-40" width="18" height="40" rx="6" fill="#5A8E3D"/>
    <rect x="98" y="-40" width="18" height="40" rx="6" fill="#5A8E3D"/>
  </g>
  <g transform="translate(420,280) rotate(-8) skewX(-12)">
    <g fill="#0F2F42">
      <rect x="10"  y="30"  width="180" height="100" rx="18"/>
      <rect x="210" y="30"  width="180" height="100" rx="18"/>
      <rect x="410" y="30"  width="180" height="100" rx="18"/>
      <rect x="10"  y="150" width="180" height="100" rx="18"/>
      <rect x="210" y="150" width="180" height="100" rx="18"/>
      <rect x="410" y="150" width="180" height="100" rx="18"/>
      <rect x="10"  y="270" width="180" height="100" rx="18"/>
      <rect x="210" y="270" width="180" height="100" rx="18"/>
      <rect x="410" y="270" width="180" height="100" rx="18"/>
    </g>
  </g>
  <g font-family="Inter, system-ui, -apple-system, Segoe UI, Roboto, Arial" font-weight="800" fill="#153A52" text-anchor="middle">
    <text x="600" y="860" font-size="170" letter-spacing="4">POWER</text>
    <text x="600" y="1020" font-size="170" letter-spacing="4">LINK</text>
  </g>
</svg>
